{
  "accessors": [
    {
      "bufferView": 2,
      "componentType": 5126,
      "count": 65532,
      "max": [
        44.3104248046875,
        27.359706878662109,
        110.07171630859375
      ],
      "min": [
        -55.122970581054688,
        -26.026268005371094,
        -10.300411224365234
      ],
      "type": "VEC3"
    },
    {
      "bufferView": 2,
      "byteOffset": 786384,
      "componentType": 5126,
      "count": 65532,
      "max": [
        0.99999886751174927,
        0.99999892711639404,
        0.9999842643737793
      ],
      "min": [
        -0.99998021125793457,
        -0.99999856948852539,
        -0.99993062019348145
      ],
      "type": "VEC3"
    },
    {
      "bufferView": 3,
      "componentType": 5126,
      "count": 65532,
      "max": [
        0.99999934434890747,
        0.99999994039535522,
        0.99819409847259521,
        1
      ],
      "min": [
        -1,
        -0.99999403953552246,
        -0.99986445903778076,
        -1
      ],
      "type": "VEC4"
    },
    {
      "bufferView": 1,
      "componentType": 5126,
      "count": 65532,
      "max": [
        0.99778681993484497,
        0.99756836891174316
      ],
      "min": [
        0.0021986817009747028,
        0.059394955635070801
      ],
      "type": "VEC2"
    },
    {
      "bufferView": 0,
      "componentType": 5125,
      "count": 371913,
      "max": [
        65531
      ],
      "min": [
        0
      ],
      "type": "SCALAR"
    },
    {
      "bufferView": 2,
      "byteOffset": 1572768,
      "componentType": 5126,
      "count": 45100,
      "max": [
        54.925563812255859,
        27.780853271484375,
        111.10961151123047
      ],
      "min": [
        -54.925552368164062,
        -25.631114959716797,
        -11.484207153320312
      ],
      "type": "VEC3"
    },
    {
      "bufferView": 2,
      "byteOffset": 2113968,
      "componentType": 5126,
      "count": 45100,
      "max": [
        0.99998831748962402,
        0.99997669458389282,
        0.9999842643737793
      ],
      "min": [
        -0.99998694658279419,
        -0.99993181228637695,
        -0.99996906518936157
      ],
      "type": "VEC3"
    },
    {
      "bufferView": 3,
      "byteOffset": 1048512,
      "componentType": 5126,
      "count": 45100,
      "max": [
        1,
        0.99999940395355225,
        0.99819183349609375,
        1
      ],
      "min": [
        -0.9999997615814209,
        -0.99999988079071045,
        -0.99091124534606934,
        -1
      ],
      "type": "VEC4"
    },
    {
      "bufferView": 1,
      "byteOffset": 524256,
      "componentType": 5126,
      "count": 45100,
      "max": [
        0.99766838550567627,
        0.99736344814300537
      ],
      "min": [
        0.0022268190514296293,
        0.014407157897949219
      ],
      "type": "VEC2"
    },
    {
      "bufferView": 0,
      "byteOffset": 1487652,
      "componentType": 5125,
      "count": 247575,
      "max": [
        45099
      ],
      "min": [
        0
      ],
      "type": "SCALAR"
    }
  ],
  "asset": {
    "extras": {
      "author": "KRM260 (https://sketchfab.com/KRM260)",
      "license": "CC-BY-4.0 (http://creativecommons.org/licenses/by/4.0/)",
      "source": "https://sketchfab.com/models/cfcfa84fa9d441c59e8047ffe3d539f4",
      "title": "SHIRT"
    },
    "generator": "Sketchfab-3.18.5",
    "version": "2.0"
  },
  "bufferViews": [
    {
      "buffer": 0,
      "byteLength": 2477952,
      "byteOffset": 0,
      "name": "floatBufferViews",
      "target": 34963
    },
    {
      "buffer": 0,
      "byteLength": 885056,
      "byteOffset": 2477952,
      "byteStride": 8,
      "name": "floatBufferViews",
      "target": 34962
    },
    {
      "buffer": 0,
      "byteLength": 2655168,
      "byteOffset": 3363008,
      "byteStride": 12,
      "name": "floatBufferViews",
      "target": 34962
    },
    {
      "buffer": 0,
      "byteLength": 1770112,
      "byteOffset": 6018176,
      "byteStride": 16,
      "name": "floatBufferViews",
      "target": 34962
    }
  ],
  "buffers": [
    {
      "byteLength": 7788288,
      "uri": "shirt.bin"
    }
  ],
  "images": [
    {
      "uri": "material_baseColorShirt.jpeg"
    }
  ],
  "materials": [
    {
      "doubleSided": true,
      "emissiveFactor": [
        0,
        0,
        0
      ],
      "name": "material",
      "pbrMetallicRoughness": {
        "baseColorFactor": [
          1,
          1,
          1,
          1
        ],
        "baseColorTexture": {
          "index": 0,
          "texCoord": 0
        },
        "metallicFactor": 0,
        "roughnessFactor": 0.73408520519999998
      }
    }
  ],
  "meshes": [
    {
      "primitives": [
        {
          "attributes": {
            "NORMAL": 1,
            "POSITION": 0,
            "TANGENT": 2,
            "TEXCOORD_0": 3
          },
          "indices": 4,
          "material": 0,
          "mode": 4
        }
      ]
    },
    {
      "primitives": [
        {
          "attributes": {
            "NORMAL": 6,
            "POSITION": 5,
            "TANGENT": 7,
            "TEXCOORD_0": 8
          },
          "indices": 9,
          "material": 0,
          "mode": 4
        }
      ]
    }
  ],
  "nodes": [
    {
      "children": [
        1
      ],
      "name": "RootNode (gltf orientation matrix)",
      "rotation": [
        -0.70710678118654746,
        -0,
        -0,
        0.70710678118654757
      ]
    },
    {
      "children": [
        2
      ],
      "matrix": [
        -1,
        0,
        0,
        0,
        0,
        -1,
        0,
        0,
        0,
        0,
        1,
        0,
        -0.19763565063476562,
        1.7544498443603516,
        0,
        1
      ],
      "name": "RootNode (model correction matrix)"
    },
    {
      "children": [
        3,
        4
      ],
      "name": "SHIRT.obj.cleaner.materialmerger.gles"
    },
    {
      "mesh": 0,
      "name": ""
    },
    {
      "mesh": 1,
      "name": ""
    }
  ],
  "samplers": [
    {
      "magFilter": 9729,
      "minFilter": 9987,
      "wrapS": 10497,
      "wrapT": 10497
    }
  ],
  "scene": 0,
  "scenes": [
    {
      "name": "OSG_Scene",
      "nodes": [
        0
      ]
    }
  ],
  "textures": [
    {
      "sampler": 0,
      "source": 0
    }
  ]
}

