{
    "accessors" : [
        {
            "bufferView" : 0,
            "componentType" : 5123,
            "count" : 1212,
            "max" : [
                329
            ],
            "min" : [
                0
            ],
            "type" : "SCALAR"
        },
        {
            "bufferView" : 1,
            "componentType" : 5126,
            "count" : 330,
            "max" : [
                1.1107583045959473,
                1.0,
                1.1107585430145264
            ],
            "min" : [
                -1.1107581853866577,
                -1.1112492084503174,
                -1.1107581853866577
            ],
            "type" : "VEC3"
        },
        {
            "bufferView" : 2,
            "componentType" : 5126,
            "count" : 330,
            "max" : [
                0.9519943594932556,
                1.0,
                0.9519943594932556
            ],
            "min" : [
                -0.9519943594932556,
                -1.0,
                -0.9519943594932556
            ],
            "type" : "VEC3"
        },
        {
            "bufferView" : 3,
            "componentType" : 5126,
            "count" : 330,
            "max" : [
                0.9999999403953552,
                1.0
            ],
            "min" : [
                0.0,
                0.0
            ],
            "type" : "VEC2"
        }
    ],
    "asset" : {
        "generator" : "Khronos Blender glTF 2.0 exporter",
        "version" : "2.0"
    },
    "bufferViews" : [
        {
            "buffer" : 0,
            "byteLength" : 2424,
            "byteOffset" : 0,
            "target" : 34963
        },
        {
            "buffer" : 0,
            "byteLength" : 3960,
            "byteOffset" : 2424,
            "target" : 34962
        },
        {
            "buffer" : 0,
            "byteLength" : 3960,
            "byteOffset" : 6384,
            "target" : 34962
        },
        {
            "buffer" : 0,
            "byteLength" : 2640,
            "byteOffset" : 10344,
            "target" : 34962
        }
    ],
    "buffers" : [
        {
            "byteLength" : 12984,
            "uri" : "cone.bin"
        }
    ],
    "images" : [
        {
            "mimeType" : "image/jpeg",
            "name" : "cone-texture",
            "uri" : "data:image/jpeg;base64,"
        }
    ],
    "materials" : [
        {
            "alphaMode" : "BLEND",
            "name" : "Material",
            "pbrMetallicRoughness" : {
                "baseColorTexture" : {
                    "index" : 0
                },
                "metallicFactor" : 0.33636364340782166,
                "roughnessFactor" : 0.44545453786849976
            }
        }
    ],
    "meshes" : [
        {
            "name" : "Cone",
            "primitives" : [
                {
                    "attributes" : {
                        "NORMAL" : 2,
                        "POSITION" : 1,
                        "TEXCOORD_0" : 3
                    },
                    "indices" : 0,
                    "material" : 0
                }
            ]
        }
    ],
    "nodes" : [
        {
            "name" : "Camera",
            "rotation" : [
                0.483536034822464,
                0.33687159419059753,
                -0.20870360732078552,
                0.7804827094078064
            ],
            "translation" : [
                7.481131553649902,
                5.34366512298584,
                6.5076398849487305
            ]
        },
        {
            "mesh" : 0,
            "name" : "Cone",
            "scale" : [
                0.9002862572669983,
                1.1764326095581055,
                0.9002862572669983
            ],
            "translation" : [
                0.0,
                1.3073128461837769,
                -0.0
            ]
        },
        {
            "name" : "Lamp",
            "rotation" : [
                0.16907575726509094,
                0.7558802962303162,
                -0.27217137813568115,
                0.570947527885437
            ],
            "scale" : [
                1.0,
                1.0,
                0.9999999403953552
            ],
            "translation" : [
                4.076245307922363,
                5.903861999511719,
                -1.0054539442062378
            ]
        }
    ],
    "samplers" : [
        {}
    ],
    "scene" : 0,
    "scenes" : [
        {
            "name" : "Scene",
            "nodes" : [
                1,
                2,
                0
            ]
        }
    ],
    "textures" : [
        {
            "sampler" : 0,
            "source" : 0
        }
    ]
}
